####
#
# OBJ File Generated by Meshlab
#
####
# Object cornell_box22.obj
#
# Vertices: 190
# Faces: 50
#
####
mtllib ./cornell_box22.mtl

vn 1.570796 1.570796 1.570796
v 0.000000 0.000000 0.000000
vn -1.570796 1.570796 1.570796
v 1.000000 0.000000 0.000000
vn -1.570796 1.570796 0.000000
v 1.000000 0.000000 1.000000
vn 1.570796 1.570796 0.000000
v 0.000000 0.000000 1.000000
vn 1.570796 -1.570796 1.570796
v 0.000000 1.000000 0.000000
vn -1.570796 -1.570796 1.570796
v 1.000000 1.000000 0.000000
vn 1.570796 -1.570796 0.000000
v 0.000000 1.000000 1.000000
vn -1.570796 -1.570796 0.000000
v 1.000000 1.000000 1.000000
vn -0.882239 -1.570800 -2.038743
v 0.184046 0.010000 0.092455
vn 2.038738 -1.570796 -0.882241
v 0.416490 0.010000 0.184486
vn 0.882244 -1.570798 2.038739
v 0.324459 0.010000 0.416930
vn -2.038734 -1.570791 0.882237
v 0.092014 0.010000 0.324899
vn -0.882239 1.570800 -2.038743
v 0.184046 0.260000 0.092455
vn 2.038738 1.570796 -0.882241
v 0.416490 0.260000 0.184486
vn -2.038733 1.570791 0.882237
v 0.092014 0.260000 0.324899
vn 0.882244 1.570798 2.038739
v 0.324459 0.260000 0.416930
vn 0.000000 -0.000000 1.000000
v 0.571577 0.155885 0.669615
vn 0.000000 -0.000000 -1.000000
v 0.571577 0.155885 0.369615
vn 0.000011 0.278902 0.960320
v 0.571577 0.194705 0.664500
vn 0.139464 0.241515 0.960323
v 0.590987 0.189500 0.664500
vn 0.241503 0.139469 0.960325
v 0.605192 0.175295 0.664500
vn 0.278902 -0.000011 0.960320
v 0.610397 0.155885 0.664500
vn 0.241515 -0.139464 0.960323
v 0.605192 0.136475 0.664500
vn 0.139470 -0.241502 0.960325
v 0.590987 0.122270 0.664500
vn -0.000011 -0.278902 0.960320
v 0.571577 0.117065 0.664500
vn -0.139464 -0.241515 0.960323
v 0.552167 0.122270 0.664500
vn -0.241502 -0.139470 0.960325
v 0.537962 0.136475 0.664500
vn -0.278902 0.000011 0.960320
v 0.532757 0.155885 0.664500
vn -0.241515 0.139464 0.960323
v 0.537962 0.175295 0.664500
vn -0.139469 0.241502 0.960325
v 0.552167 0.189500 0.664500
vn 0.000026 0.515875 0.856664
v 0.571577 0.230885 0.649515
vn 0.257897 0.446723 0.856696
v 0.609077 0.220835 0.649515
vn 0.446701 0.257915 0.856702
v 0.636527 0.193385 0.649515
vn 0.515875 -0.000026 0.856664
v 0.646577 0.155885 0.649515
vn 0.446723 -0.257898 0.856696
v 0.636527 0.118385 0.649515
vn 0.257915 -0.446702 0.856702
v 0.609077 0.090935 0.649515
vn -0.000026 -0.515875 0.856664
v 0.571577 0.080885 0.649515
vn -0.257898 -0.446723 0.856696
v 0.534077 0.090935 0.649515
vn -0.446701 -0.257915 0.856702
v 0.506627 0.118385 0.649515
vn -0.515875 0.000026 0.856664
v 0.496577 0.155885 0.649515
vn -0.446723 0.257897 0.856696
v 0.506627 0.193385 0.649515
vn -0.257915 0.446701 0.856702
v 0.534077 0.220835 0.649515
vn -0.000004 0.717598 0.696458
v 0.571577 0.261950 0.625680
vn 0.358782 0.621464 0.696461
v 0.624617 0.247745 0.625680
vn 0.621478 0.358786 0.696446
v 0.663437 0.208925 0.625680
vn 0.717598 0.000004 0.696458
v 0.677642 0.155885 0.625680
vn 0.621463 -0.358782 0.696461
v 0.663437 0.102845 0.625680
vn 0.358786 -0.621478 0.696446
v 0.624617 0.064025 0.625680
vn 0.000004 -0.717598 0.696458
v 0.571577 0.049820 0.625680
vn -0.358782 -0.621464 0.696461
v 0.518537 0.064025 0.625680
vn -0.621478 -0.358786 0.696446
v 0.479717 0.102845 0.625680
vn -0.717598 -0.000004 0.696458
v 0.465512 0.155885 0.625680
vn -0.621464 0.358782 0.696461
v 0.479717 0.208925 0.625680
vn -0.358786 0.621478 0.696446
v 0.518537 0.247745 0.625680
vn -0.000009 0.871245 0.490848
v 0.571577 0.285785 0.594615
vn 0.435589 0.754551 0.490831
v 0.636527 0.268385 0.594615
vn 0.754553 0.435579 0.490837
v 0.684077 0.220835 0.594615
vn 0.871245 0.000009 0.490848
v 0.701477 0.155885 0.594615
vn 0.754551 -0.435589 0.490831
v 0.684077 0.090935 0.594615
vn 0.435579 -0.754553 0.490837
v 0.636527 0.043385 0.594615
vn 0.000009 -0.871245 0.490848
v 0.571577 0.025985 0.594615
vn -0.435589 -0.754551 0.490831
v 0.506627 0.043385 0.594615
vn -0.754553 -0.435579 0.490837
v 0.459077 0.090935 0.594615
vn -0.871245 -0.000009 0.490848
v 0.441677 0.155885 0.594615
vn -0.754551 0.435589 0.490831
v 0.459077 0.220835 0.594615
vn -0.435579 0.754553 0.490837
v 0.506627 0.268385 0.594615
vn -0.000017 0.967304 0.253621
v 0.571577 0.300770 0.558435
vn 0.483677 0.837712 0.253566
v 0.644027 0.281360 0.558435
vn 0.837723 0.483663 0.253555
v 0.697052 0.228335 0.558435
vn 0.967304 0.000017 0.253621
v 0.716462 0.155885 0.558435
vn 0.837712 -0.483677 0.253566
v 0.697052 0.083435 0.558435
vn 0.483663 -0.837723 0.253555
v 0.644027 0.030410 0.558435
vn 0.000017 -0.967304 0.253621
v 0.571577 0.011000 0.558435
vn -0.483677 -0.837712 0.253566
v 0.499127 0.030410 0.558435
vn -0.837723 -0.483663 0.253555
v 0.446102 0.083435 0.558435
vn -0.967304 -0.000017 0.253621
v 0.426692 0.155885 0.558435
vn -0.837712 0.483677 0.253566
v 0.446102 0.228335 0.558435
vn -0.483663 0.837723 0.253555
v 0.499127 0.281360 0.558435
vn 0.000000 1.000000 -0.000000
v 0.571577 0.305885 0.519615
vn 0.499993 0.866029 -0.000012
v 0.646577 0.285785 0.519615
vn 0.866029 0.499993 0.000012
v 0.701477 0.230885 0.519615
vn 1.000000 -0.000000 -0.000000
v 0.721577 0.155885 0.519615
vn 0.866029 -0.499993 -0.000012
v 0.701477 0.080885 0.519615
vn 0.499993 -0.866029 0.000012
v 0.646577 0.025985 0.519615
vn 0.000000 -1.000000 -0.000000
v 0.571577 0.005885 0.519615
vn -0.499993 -0.866029 -0.000012
v 0.496577 0.025985 0.519615
vn -0.866029 -0.499993 0.000012
v 0.441677 0.080885 0.519615
vn -1.000000 0.000000 -0.000000
v 0.421577 0.155885 0.519615
vn -0.866029 0.499993 -0.000012
v 0.441677 0.230885 0.519615
vn -0.499993 0.866029 0.000012
v 0.496577 0.285785 0.519615
vn 0.000017 0.967304 -0.253621
v 0.571577 0.300770 0.480795
vn 0.483663 0.837723 -0.253555
v 0.644027 0.281360 0.480795
vn 0.837712 0.483677 -0.253566
v 0.697052 0.228335 0.480795
vn 0.967304 -0.000017 -0.253621
v 0.716462 0.155885 0.480795
vn 0.837723 -0.483663 -0.253555
v 0.697052 0.083435 0.480795
vn 0.483677 -0.837712 -0.253566
v 0.644027 0.030410 0.480795
vn -0.000017 -0.967304 -0.253621
v 0.571577 0.011000 0.480795
vn -0.483663 -0.837723 -0.253555
v 0.499127 0.030410 0.480795
vn -0.837712 -0.483677 -0.253566
v 0.446102 0.083435 0.480795
vn -0.967304 0.000017 -0.253621
v 0.426692 0.155885 0.480795
vn -0.837723 0.483663 -0.253555
v 0.446102 0.228335 0.480795
vn -0.483677 0.837712 -0.253566
v 0.499127 0.281360 0.480795
vn 0.000009 0.871245 -0.490848
v 0.571577 0.285785 0.444615
vn 0.435579 0.754553 -0.490837
v 0.636527 0.268385 0.444615
vn 0.754551 0.435589 -0.490831
v 0.684077 0.220835 0.444615
vn 0.871245 -0.000009 -0.490848
v 0.701477 0.155885 0.444615
vn 0.754553 -0.435579 -0.490837
v 0.684077 0.090935 0.444615
vn 0.435589 -0.754551 -0.490832
v 0.636527 0.043385 0.444615
vn -0.000009 -0.871245 -0.490848
v 0.571577 0.025985 0.444615
vn -0.435579 -0.754553 -0.490837
v 0.506627 0.043385 0.444615
vn -0.754551 -0.435589 -0.490831
v 0.459077 0.090935 0.444615
vn -0.871245 0.000009 -0.490848
v 0.441677 0.155885 0.444615
vn -0.754553 0.435579 -0.490837
v 0.459077 0.220835 0.444615
vn -0.435589 0.754551 -0.490832
v 0.506627 0.268385 0.444615
vn 0.000004 0.717598 -0.696458
v 0.571577 0.261950 0.413550
vn 0.358786 0.621478 -0.696446
v 0.624617 0.247745 0.413550
vn 0.621464 0.358782 -0.696461
v 0.663437 0.208925 0.413550
vn 0.717598 -0.000004 -0.696458
v 0.677642 0.155885 0.413550
vn 0.621478 -0.358787 -0.696446
v 0.663437 0.102845 0.413550
vn 0.358782 -0.621464 -0.696461
v 0.624617 0.064025 0.413550
vn -0.000004 -0.717598 -0.696458
v 0.571577 0.049820 0.413550
vn -0.358787 -0.621478 -0.696446
v 0.518537 0.064025 0.413550
vn -0.621464 -0.358782 -0.696461
v 0.479717 0.102845 0.413550
vn -0.717598 0.000004 -0.696458
v 0.465512 0.155885 0.413550
vn -0.621478 0.358786 -0.696446
v 0.479717 0.208925 0.413550
vn -0.358783 0.621464 -0.696461
v 0.518537 0.247745 0.413550
vn -0.000026 0.515875 -0.856664
v 0.571577 0.230885 0.389715
vn 0.257915 0.446702 -0.856701
v 0.609077 0.220835 0.389715
vn 0.446723 0.257898 -0.856695
v 0.636527 0.193385 0.389715
vn 0.515875 0.000026 -0.856664
v 0.646577 0.155885 0.389715
vn 0.446702 -0.257915 -0.856702
v 0.636527 0.118385 0.389715
vn 0.257898 -0.446723 -0.856695
v 0.609077 0.090935 0.389715
vn 0.000026 -0.515875 -0.856664
v 0.571577 0.080885 0.389715
vn -0.257915 -0.446702 -0.856702
v 0.534077 0.090935 0.389715
vn -0.446723 -0.257897 -0.856696
v 0.506627 0.118385 0.389715
vn -0.515875 -0.000026 -0.856664
v 0.496577 0.155885 0.389715
vn -0.446702 0.257915 -0.856702
v 0.506627 0.193385 0.389715
vn -0.257898 0.446723 -0.856695
v 0.534077 0.220835 0.389715
vn -0.000011 0.278902 -0.960320
v 0.571577 0.194705 0.374730
vn 0.139469 0.241502 -0.960325
v 0.590987 0.189500 0.374730
vn 0.241515 0.139464 -0.960323
v 0.605192 0.175295 0.374730
vn 0.278902 0.000011 -0.960320
v 0.610397 0.155885 0.374730
vn 0.241503 -0.139469 -0.960325
v 0.605192 0.136475 0.374730
vn 0.139464 -0.241515 -0.960323
v 0.590987 0.122270 0.374730
vn 0.000011 -0.278902 -0.960320
v 0.571577 0.117065 0.374730
vn -0.139469 -0.241502 -0.960325
v 0.552167 0.122270 0.374730
vn -0.241515 -0.139464 -0.960323
v 0.537962 0.136475 0.374730
vn -0.278902 -0.000011 -0.960320
v 0.532757 0.155885 0.374730
vn -0.241502 0.139469 -0.960325
v 0.537962 0.175295 0.374730
vn -0.139464 0.241515 -0.960323
v 0.552167 0.189500 0.374730
vn 0.000000 0.000000 0.000000
v 0.746057 0.508610 0.163676
vn 0.000000 0.000000 0.000000
v 0.746057 0.008610 0.163676
vn 0.000000 0.000000 0.000000
v 0.846057 0.508610 0.163676
vn 0.000000 0.000000 0.000000
v 0.696057 0.508610 0.077073
vn 0.000000 0.000000 0.000000
v 0.696057 0.508610 0.250278
vn 0.000000 0.000000 0.000000
v 0.946057 0.008610 0.163676
vn 0.000000 0.000000 0.000000
v 0.646057 0.008610 -0.009529
vn 0.000000 0.000000 0.000000
v 0.646057 0.008610 0.336881
vn 0.000000 0.000000 0.000000
v 0.816834 0.002440 0.657331
vn 0.000000 0.000000 0.000000
v 0.933259 0.002440 0.540906
vn 0.000000 0.000000 0.000000
v 0.816834 0.328430 0.540906
vn 0.000000 0.000000 0.000000
v 0.700409 0.002440 0.540906
vn 0.000000 0.000000 0.000000
v 0.816834 -0.323550 0.540906
vn 0.000000 0.000000 0.000000
v 0.816834 0.002440 0.424481
vn -0.000000 0.651632 1.824569
v 0.816834 0.002440 0.407331
vn 1.824568 0.651632 0.000000
v 0.933259 0.002440 0.290906
vn -0.000000 0.470362 0.000000
v 0.816834 0.328430 0.290906
vn -1.824569 0.651632 0.000000
v 0.700409 0.002440 0.290906
vn 0.000000 0.000000 0.000000
v 0.816834 -0.323550 0.290906
vn -0.000000 0.651632 -1.824569
v 0.816834 0.002440 0.174481
vn 0.000000 -1.570796 0.000000
v 0.200000 0.9950 0.300000
vn 0.000000 -1.570796 0.000000
v 0.400000 0.9950 0.300000
vn 0.000000 -1.570796 0.000000
v 0.400000 0.9950 0.600000
vn 0.000000 -1.570796 0.000000
v 0.200000 0.9950 0.600000
vn 0.000000 -1.570796 0.000000
v 0.600000 0.9950 0.300000
vn 0.000000 -1.570796 0.000000
v 0.800000 0.9950 0.300000
vn 0.000000 -1.570796 0.000000
v 0.800000 0.9950 0.600000
vn 0.000000 -1.570796 0.000000
v 0.600000 0.999950 0.600000
vn 0.000000 3.539389 2.187463
v 0.504453 0.321803 0.772604
vn 0.000000 3.539389 -2.187463
v 0.504453 0.321803 0.572604
vn -0.000000 -3.539389 2.187463
v 0.504453 -0.001803 0.772604
vn -0.000000 -3.539389 -2.187463
v 0.504453 -0.001803 0.572604
vn 3.539389 2.187463 0.000000
v 0.666256 0.260000 0.672604
vn 3.539389 -2.187463 0.000000
v 0.666256 0.060000 0.672604
vn -3.539389 2.187462 0.000000
v 0.342650 0.260000 0.672604
vn -3.539389 -2.187462 0.000000
v 0.342650 0.060000 0.672604
vn 2.187463 0.000000 3.539388
v 0.604453 0.160000 0.834407
vn -2.187462 0.000000 3.539389
v 0.404453 0.160000 0.834407
vn 2.187463 0.000000 -3.539388
v 0.604453 0.160000 0.510801
vn -2.187462 0.000000 -3.539389
v 0.404453 0.160000 0.510801
# 190 vertices, 0 vertices normals

usemtl gray
vt 0.375000 0.304087
vt 0.125000 0.304087
vt 0.375000 0.695913
f 2/1/2 1/2/1 3/3/3
vt 0.125000 0.695913
f 3/3/3 1/2/1 4/4/4
vt 0.875000 0.304087
vt 0.625000 0.304087
f 5/5/5 1/2/1 6/6/6
f 6/6/6 1/2/1 2/1/2

usemtl green
vt 0.875000 0.695913
f 4/4/4 1/2/1 7/7/7
f 7/7/7 1/2/1 5/5/5

usemtl red
f 6/6/6 2/1/2 3/3/3
vt 0.625000 0.695913
f 8/8/8 6/6/6 3/3/3

usemtl gray
f 8/8/8 7/7/7 6/6/6
f 6/6/6 7/7/7 5/5/5

usemtl metal
f 9/2/9 10/1/10 11/3/11
f 9/2/9 11/3/11 12/4/12
f 9/2/9 13/5/13 14/6/14
f 9/2/9 14/6/14 10/1/10
f 9/2/9 12/4/12 15/7/15
f 9/2/9 15/7/15 13/5/13
usemtl shiny
f 10/1/10 14/6/14 11/3/11
f 14/6/14 16/8/16 11/3/11
f 12/4/12 11/3/11 15/7/15
f 11/3/11 16/8/16 15/7/15
f 15/7/15 16/8/16 14/6/14
f 15/7/15 14/6/14 13/5/13
vt 0.500000 1.000000
vt 0.500000 0.500000
vt 0.750000 0.500000
f 165/9/165 166/10/166 167/11/167
vt 0.000000 0.500000
f 165/9/165 167/11/167 168/12/168
vt 0.500000 0.000000
f 167/11/167 166/10/166 170/13/170
f 167/11/167 170/13/170 168/12/168

usemtl light
vt 0.000000 0.000000
f 171/14/171 172/14/172 173/14/173
f 173/14/173 174/14/174 171/14/171
usemtl light
f 175/14/175 176/14/176 177/14/177
f 177/14/177 178/14/178 175/14/175

usemtl glass
f 180/10/180 179/10/179 183/10/183
f 179/10/179 180/10/180 185/10/185
f 181/10/181 182/10/182 184/10/184
f 182/10/182 181/10/181 186/10/186
f 183/10/183 184/10/184 189/10/189
f 184/10/184 183/10/183 187/10/187
f 185/10/185 186/10/186 188/10/188
f 186/10/186 185/10/185 190/10/190
f 187/10/187 188/10/188 181/10/181
f 188/10/188 187/10/187 179/10/179
f 189/10/189 190/10/190 180/10/180
f 190/10/190 189/10/189 182/10/182
f 179/10/179 187/10/187 183/10/183
f 179/10/179 185/10/185 188/10/188
f 180/10/180 183/10/183 189/10/189
f 180/10/180 190/10/190 185/10/185
f 181/10/181 184/10/184 187/10/187
f 181/10/181 188/10/188 186/10/186
f 182/10/182 189/10/189 184/10/184
f 182/10/182 186/10/186 190/10/190
# 50 faces, 14 coords texture

# End of File
